# xmcd
#
# Track frame offsets:
#	150
#	21583
#	44832
#	62776
#	108300
#	128170
#	152088
#	165633
#	193598
#	214998
#	236460
#	256608
#	290873
#	311489
#	333009
#
# Disc length: 4748 seconds
#
# Revision: 0
# Processed by: cddbd v1.5.2PL0 Copyright (c) Steve Scherf et al.
# Submitted via: EasyCDDAExtractor 8.2.3.1
#
DISCID=dc128a0f
DTITLE=Various Artist - Blues On The Road  79'10''
DYEAR=2005
DGENRE=Blues
TTITLE0=BIG HOUSE - Amarillo
TTITLE1=MICK MARTIN - Notch on My Gun
TTITLE2=DELBERT McCLINTON - Same Kind of Crazy
TTITLE3=BRYAN LEE - Six String Therapy
TTITLE4=SCOTT ELLISON - I Got Mojo Workin'
TTITLE5=BLUES COMPANY - Crippled Mind
TTITLE6=RON HACKER - Two Timin' Woman
TTITLE7=WILLIE EDWARDS - Helpless, Hopeless Feeling
TTITLE8=HANK SHIZZOE - End of the Trail
TTITLE9=TONY JOE WHITE - Hard Time with Sunday
TTITLE10=VARGAS - Back to the City
TTITLE11=BLUE JEANS - Five Long Years
TTITLE12=PETER GREEN - I'm Ready For You
TTITLE13=OMAR and The HOWLERS - Full Moon on Main Street
TTITLE14=JAY STULO - There's Something Going On
EXTD=
EXTT0=
EXTT1=
EXTT2=
EXTT3=
EXTT4=
EXTT5=
EXTT6=
EXTT7=
EXTT8=
EXTT9=
EXTT10=
EXTT11=
EXTT12=
EXTT13=
EXTT14=
PLAYORDER=
